<?xml version="1.0" encoding="utf-8"?>
<svg version="1.2" baseProfile="tiny" xmlns="http://www.w3.org/2000/svg" x="0px" y="0px" width="56.69px" height="85.04px" viewBox="0 0 56.69 85.04">

	<path fill="#d0d2d3" stroke="#000" stroke-width="1px" stroke-miterlimit="10" d="M1,21.76C1,6.73,13.27,1,28.35,1s27.3,5.71,27.3,20.75v41.5c0,15-12.22,20.75-27.3,20.75S1,78.31,1,63.27V21.77H1Z"/>
	<path fill="none" stroke="#ffb381" stroke-width="1.33px" d="M45.59,56.87c0,8.74-7.72,15.83-17.24,15.83S11.1,65.62,11.1,56.87,18.82,41,28.35,41,45.59,48.13,45.59,56.87Z"/>
	<path fill="none" stroke="#ffb381" stroke-width="1.33px" d="M43.85,26.69c0-7.93-7-14.36-15.59-14.36S12.68,18.76,12.68,26.69s7,14.36,15.59,14.36S43.85,34.62,43.85,26.69Z"/>
	<path fill="none" stroke="#f60" stroke-width="1.33px" d="M45.59,56.87c0,8.74-7.72,15.83-17.24,15.83S11.1,65.62,11.1,56.87,18.82,41,28.35,41,45.59,48.13,45.59,56.87Z"/>
	<path fill="none" stroke="#f60" stroke-width="1.33px" d="M43.85,26.69c0-7.93-7-14.36-15.59-14.36S12.68,18.76,12.68,26.69s7,14.36,15.59,14.36S43.85,34.62,43.85,26.69Z"/>

	<line stroke="#808184" stroke-width="0.5px" x1="4.44" y1="13.09" x2="4.44" y2="72.19"/>
	<line stroke="#808184" stroke-width="0.5px" x1="10.29" y1="13.09" x2="10.29" y2="72.19"/>
	<line stroke="#808184" stroke-width="0.5px" x1="16.14" y1="13.09" x2="16.14" y2="72.19"/>
	<line stroke="#808184" stroke-width="0.5px" x1="21.99" y1="13.09" x2="21.99" y2="72.19"/>
	<line stroke="#808184" stroke-width="0.5px" x1="27.84" y1="13.09" x2="27.84" y2="72.19"/>
	<line stroke="#808184" stroke-width="0.5px" x1="33.69" y1="13.09" x2="33.69" y2="72.19"/>
	<line stroke="#808184" stroke-width="0.5px" x1="39.54" y1="13.09" x2="39.54" y2="72.19"/>
	<line stroke="#808184" stroke-width="0.5px" x1="45.4" y1="13.09" x2="45.4" y2="72.19"/>
	<line stroke="#808184" stroke-width="0.5px" x1="52.08" y1="13.09" x2="52.08" y2="72.19"/>
	<line stroke="#808184" stroke-width="0.5px" x1="52.08" y1="12.85" x2="4.44" y2="12.85"/>
	<line stroke="#808184" stroke-width="0.5px" x1="52.08" y1="18.7" x2="4.44" y2="18.7"/>
	<line stroke="#808184" stroke-width="0.5px" x1="52.08" y1="24.55" x2="4.44" y2="24.55"/>
	<line stroke="#808184" stroke-width="0.5px" x1="52.08" y1="30.4" x2="4.44" y2="30.4"/>
	<line stroke="#808184" stroke-width="0.5px" x1="52.08" y1="36.25" x2="4.44" y2="36.25"/>
	<line stroke="#808184" stroke-width="0.5px" x1="52.08" y1="42.1" x2="4.44" y2="42.1"/>
	<line stroke="#808184" stroke-width="0.5px" x1="52.08" y1="47.95" x2="4.44" y2="47.95"/>
	<line stroke="#808184" stroke-width="0.5px" x1="52.08" y1="53.8" x2="4.44" y2="53.8"/>
	<line stroke="#808184" stroke-width="0.5px" x1="52.08" y1="60.49" x2="4.44" y2="60.49"/>
	<line stroke="#808184" stroke-width="0.5px" x1="52.08" y1="66.34" x2="4.44" y2="66.34"/>
	<line stroke="#808184" stroke-width="0.5px" x1="52.08" y1="72.19" x2="4.44" y2="72.19"/>

	<path fill="#fbd4e5" d="M27.92,3.27a3.25,3.25,0,1,0,3.25,3.25A3.25,3.25,0,0,0,27.92,3.27Zm0,4.71a1.46,1.46,0,1,1,1.46-1.46A1.46,1.46,0,0,1,27.92,8Z"/>
	<path fill="#fbd4e5" d="M27.92,75.27a3.25,3.25,0,1,0,3.25,3.25A3.25,3.25,0,0,0,27.92,75.27Zm0,4.71a1.46,1.46,0,1,1,1.46-1.46A1.46,1.46,0,0,1,27.92,80Z"/>

</svg>